<svg width="13" height="9" viewBox="0 0 13 9" fill="none" xmlns="http://www.w3.org/2000/svg">
<path d="M6.99995 9C6.74466 8.99871 6.49285 8.94061 6.26281 8.82991C6.03276 8.71922 5.83024 8.5587 5.66995 8.36L1.45995 3.26C1.21394 2.95297 1.05913 2.583 1.01316 2.19227C0.967195 1.80153 1.03191 1.40574 1.19995 1.05C1.33623 0.740826 1.55862 0.477413 1.84057 0.291223C2.12251 0.105032 2.45209 0.00393305 2.78995 0H11.2099C11.5478 0.00393305 11.8774 0.105032 12.1593 0.291223C12.4413 0.477413 12.6637 0.740826 12.7999 1.05C12.968 1.40574 13.0327 1.80153 12.9867 2.19227C12.9408 2.583 12.786 2.95297 12.5399 3.26L8.32995 8.36C8.16965 8.5587 7.96713 8.71922 7.73709 8.82991C7.50704 8.94061 7.25524 8.99871 6.99995 9Z" fill="#162427"/>
</svg>
